<?xml version="1.0" encoding="UTF-8"?>
<!DOCTYPE svg PUBLIC "-//W3C//DTD SVG 1.1//EN" "http://www.w3.org/Graphics/SVG/1.1/DTD/svg11.dtd">
<svg xmlns="http://www.w3.org/2000/svg" version="1.1" width="432px" height="432px" style="shape-rendering:geometricPrecision; text-rendering:geometricPrecision; image-rendering:optimizeQuality; fill-rule:evenodd; clip-rule:evenodd" xmlns:xlink="http://www.w3.org/1999/xlink">
<g><path style="opacity:0.906" fill="#fefffe" d="M 181.5,118.5 C 183.034,126.935 184.201,135.602 185,144.5C 185.384,136.462 187.55,128.962 191.5,122C 192.332,121.312 192.998,121.479 193.5,122.5C 189.571,130.775 188.071,139.441 189,148.5C 189.776,143.66 191.609,139.327 194.5,135.5C 194.833,136 195.167,136.5 195.5,137C 191.672,146.131 190.172,155.631 191,165.5C 193.925,176.277 197.259,186.943 201,197.5C 203.579,209.739 206.912,221.739 211,233.5C 212.167,234.667 213.333,235.833 214.5,237C 219.563,237.248 224.563,237.915 229.5,239C 232.986,240.46 234.819,242.96 235,246.5C 232.156,247.926 229.322,249.426 226.5,251C 241.277,256.56 255.611,262.894 269.5,270C 277.026,272.066 284.693,273.4 292.5,274C 293.308,274.308 293.975,274.808 294.5,275.5C 292.343,276.79 290.01,277.624 287.5,278C 288.672,278.419 289.672,279.085 290.5,280C 286.336,280.813 282.336,280.313 278.5,278.5C 278.167,278.667 277.833,278.833 277.5,279C 278.5,280 279.5,281 280.5,282C 277.695,282.442 275.028,281.942 272.5,280.5C 271.167,280.833 269.833,281.167 268.5,281.5C 264.274,280.93 260.108,280.263 256,279.5C 249.736,280.512 243.57,280.512 237.5,279.5C 233.379,277.67 229.046,276.337 224.5,275.5C 222.807,274.772 221.307,273.772 220,272.5C 219.586,272.957 219.086,273.291 218.5,273.5C 214.373,272.839 210.54,271.505 207,269.5C 206.667,269.833 206.333,270.167 206,270.5C 202.004,268.505 198.171,266.171 194.5,263.5C 192.612,268.278 190.445,272.945 188,277.5C 186.972,279.361 185.472,280.695 183.5,281.5C 182.201,280.91 181.368,279.91 181,278.5C 180.586,278.957 180.086,279.291 179.5,279.5C 176.245,277.581 173.079,276.248 170,275.5C 167.01,276.608 164.51,275.775 162.5,273C 159.692,272.981 157.359,271.981 155.5,270C 155.833,269.667 156.167,269.333 156.5,269C 153.057,268.596 151.724,266.929 152.5,264C 151.833,262.667 150.833,261.667 149.5,261C 149.989,256.312 149.989,251.478 149.5,246.5C 155.661,246.851 161.828,247.184 168,247.5C 171.684,247.63 175.184,247.13 178.5,246C 175.132,240.625 172.132,235.125 169.5,229.5C 169.608,228.558 169.941,227.725 170.5,227C 168.114,226.716 167.448,225.716 168.5,224C 165.18,222.739 164.846,221.072 167.5,219C 165.606,217.921 165.273,216.587 166.5,215C 164.222,211.779 163.556,208.279 164.5,204.5C 163.258,202.267 161.924,200.101 160.5,198C 160.508,194.35 160.508,190.684 160.5,187C 160.759,185.739 161.426,184.739 162.5,184C 162.827,181.247 162.16,178.581 160.5,176C 160.755,174.674 161.422,173.674 162.5,173C 161.833,172 161.167,171 160.5,170C 161.574,169.261 162.241,168.261 162.5,167C 161.144,165.433 160.477,163.6 160.5,161.5C 161.873,161.657 163.207,161.49 164.5,161C 162.98,159.115 161.98,156.949 161.5,154.5C 163.108,153.758 164.775,153.591 166.5,154C 163.196,150.263 161.529,146.096 161.5,141.5C 164.824,144.994 167.991,148.661 171,152.5C 169.711,147.321 168.711,141.988 168,136.5C 167.182,133.773 167.348,131.106 168.5,128.5C 171.024,135.559 173.857,142.559 177,149.5C 176.183,142.724 175.349,135.89 174.5,129C 174.391,126.3 174.891,123.8 176,121.5C 177.57,129.46 179.236,137.46 181,145.5C 180.22,136.506 180.387,127.506 181.5,118.5 Z"/></g>
</svg>
