<?xml version="1.0" standalone="no"?>
<!DOCTYPE svg PUBLIC "-//W3C//DTD SVG 20010904//EN"
 "http://www.w3.org/TR/2001/REC-SVG-20010904/DTD/svg10.dtd">
<svg version="1.0" xmlns="http://www.w3.org/2000/svg"
 width="512.000000pt" height="512.000000pt" viewBox="0 0 512.000000 512.000000"
 preserveAspectRatio="xMidYMid meet">

<g transform="translate(0.000000,512.000000) scale(0.100000,-0.100000)"
fill="#000000" stroke="none">
<path d="M1994 4030 c3 -124 12 -259 19 -300 l14 -75 1 125 c0 122 7 164 54
328 l12 42 -53 53 -53 52 6 -225z"/>
<path d="M2151 4173 c-62 -135 -86 -288 -74 -493 l7 -145 7 115 c7 136 38 253
80 302 36 42 38 21 5 -53 -50 -115 -78 -342 -57 -465 7 -38 46 -170 88 -294
74 -222 123 -394 164 -580 27 -123 85 -300 107 -325 57 -66 66 -70 191 -75
135 -7 167 -20 215 -88 l30 -42 -24 -25 c-16 -17 -32 -24 -43 -21 -11 3 -39
-8 -65 -24 l-46 -28 40 -17 c139 -60 194 -82 317 -126 77 -26 160 -60 185 -75
118 -68 160 -89 241 -121 78 -30 198 -58 146 -34 -11 5 -15 10 -10 11 6 0 -25
15 -68 31 -43 17 -76 33 -73 36 3 3 -26 21 -65 39 -39 19 -68 38 -65 43 3 5
-25 23 -63 41 -38 18 -67 38 -65 44 2 6 -28 24 -66 39 -57 23 -69 32 -60 42
11 13 -1 52 -20 65 -4 3 -17 21 -29 40 l-21 35 292 292 293 293 -49 49 c-35
35 -46 54 -42 68 4 14 -6 31 -39 63 -25 24 -45 48 -45 53 0 21 -704 758 -1117
1170 l-189 188 -13 -28z"/>
<path d="M1883 4130 c10 -113 84 -487 94 -477 2 3 -1 31 -7 64 -6 32 -14 138
-17 235 l-6 177 -35 33 -35 33 6 -65z"/>
<path d="M1756 4035 c14 -75 125 -358 146 -371 6 -4 8 1 4 12 -6 23 -42 202
-52 264 -6 37 -16 53 -56 90 l-50 44 8 -39z"/>
<path d="M1670 3795 c53 -71 130 -158 135 -153 2 2 -9 32 -25 68 -16 36 -30
57 -30 46 0 -15 -8 -12 -47 20 -27 21 -41 30 -33 19z"/>
<path d="M1741 3794 c0 -11 3 -14 6 -6 3 7 2 16 -1 19 -3 4 -6 -2 -5 -13z"/>
<path d="M1641 3720 c22 -44 45 -80 50 -80 5 0 9 3 9 6 0 8 -92 154 -97 154
-2 0 15 -36 38 -80z"/>
<path d="M1616 3575 c9 -39 22 -65 34 -65 14 0 13 3 -15 51 -22 39 -25 40 -19
14z"/>
<path d="M1590 3476 c0 -19 24 -86 32 -86 4 0 8 6 8 13 -1 14 -39 86 -40 73z"/>
<path d="M1590 3331 c0 -11 5 -23 10 -26 6 -3 10 3 10 14 0 11 -4 23 -10 26
-5 3 -10 -3 -10 -14z"/>
<path d="M1580 3240 c0 -8 3 -32 6 -53 5 -29 10 -35 19 -27 10 8 11 20 4 42
-10 36 -29 60 -29 38z"/>
<path d="M1590 3114 c0 -22 2 -25 15 -14 12 10 13 16 4 26 -16 20 -19 18 -19
-12z"/>
<path d="M1581 2990 c1 -84 9 -112 28 -101 12 8 12 13 -2 35 -20 30 -22 67 -5
84 10 10 8 16 -5 29 -16 16 -17 14 -16 -47z"/>
<path d="M1590 2845 c0 -15 18 -118 41 -229 39 -190 66 -287 138 -486 17 -47
31 -95 31 -106 0 -17 8 -23 42 -28 31 -5 45 -3 57 9 14 14 13 17 -7 31 -13 9
-22 26 -22 42 0 15 -9 35 -20 45 -11 9 -17 23 -14 31 4 9 -5 20 -25 31 -29 14
-31 18 -25 55 6 37 5 40 -16 40 -21 0 -22 3 -16 40 6 37 4 41 -19 50 -26 10
-32 24 -15 35 17 11 11 24 -15 31 -28 7 -31 15 -13 44 10 16 10 24 0 41 -7 11
-10 29 -7 41 5 14 0 24 -15 35 -16 11 -19 18 -11 26 17 17 13 38 -11 64 -20
21 -20 24 -5 41 22 25 21 44 -3 65 -11 9 -20 25 -20 36 0 10 -7 24 -15 31 -13
11 -15 8 -15 -15z"/>
<path d="M1395 1950 c3 -5 8 -10 11 -10 2 0 4 5 4 10 0 6 -5 10 -11 10 -5 0
-7 -4 -4 -10z"/>
<path d="M1392 1861 c2 -7 7 -12 11 -12 12 1 9 15 -3 20 -7 2 -11 -2 -8 -8z"/>
<path d="M1400 1795 c0 -8 4 -15 9 -15 5 0 11 7 15 15 3 9 0 15 -9 15 -8 0
-15 -7 -15 -15z"/>
<path d="M1412 1742 c-10 -7 -10 -20 -1 -63 27 -126 90 -204 214 -265 58 -29
113 -72 260 -207 l187 -170 112 112 111 111 50 0 c28 -1 68 -7 90 -15 35 -13
41 -12 57 2 16 15 23 14 80 -1 35 -10 83 -19 108 -20 25 -2 73 -10 107 -18 35
-9 72 -14 83 -11 10 3 41 0 67 -6 127 -30 739 -9 788 28 5 4 31 15 57 25 58
21 108 75 108 116 0 16 4 31 9 34 5 3 7 14 4 24 -3 13 4 20 28 27 18 6 35 16
37 24 4 13 -20 12 -110 -5 -37 -7 -35 -21 3 -29 16 -4 28 -12 26 -18 -6 -18
-88 -12 -157 12 -84 29 -97 27 -55 -10 64 -57 39 -65 -60 -20 -63 29 -65 29
-75 10 -13 -23 -37 -24 -90 -3 -29 12 -44 13 -53 5 -9 -7 -31 -8 -68 -2 -30 5
-97 8 -149 6 -67 -2 -100 1 -115 11 -12 7 -52 16 -90 19 -39 2 -95 12 -125 21
-30 8 -68 17 -84 18 -16 2 -34 10 -41 19 -7 10 -22 17 -33 17 -11 0 -23 4 -26
9 -6 8 -31 14 -119 27 -20 4 -40 10 -43 15 -3 5 -16 9 -29 9 -13 0 -27 5 -30
10 -3 6 -22 10 -41 10 -19 0 -34 5 -34 10 0 6 -13 10 -30 10 -33 0 -39 16 -12
36 14 11 11 11 -20 2 -20 -6 -45 -8 -55 -4 -16 7 -15 10 12 32 32 26 28 29
-22 15 -21 -6 -35 -5 -42 2 -15 15 -25 3 -54 -69 -23 -58 -90 -178 -121 -218
-19 -24 -61 -15 -69 16 -5 18 -8 19 -22 8 -12 -10 -19 -10 -27 -2 -7 7 -22 12
-35 12 -13 0 -26 7 -29 15 -4 9 -15 12 -33 9 -18 -4 -32 0 -40 10 -8 10 -22
13 -40 10 -28 -6 -91 19 -91 35 0 15 -59 34 -85 27 -18 -5 -25 -2 -25 9 0 8
-4 15 -10 15 -5 0 -10 9 -10 20 0 12 -7 20 -17 20 -10 0 -31 12 -47 27 -27 23
-28 26 -13 38 21 15 22 25 3 25 -9 0 -12 7 -9 20 6 22 4 24 -15 12z"/>
</g>
</svg>
